<svg width="254" height="15" viewBox="0 0 254 15" fill="none" xmlns="http://www.w3.org/2000/svg">
<path d="M0.0169312 0.608V14H5.07493V8.852H14.3449V5.558H5.07493V3.884H14.5429V0.608H0.0169312ZM26.1546 0.356C17.4786 0.356 16.3806 4.478 16.3806 6.998V7.538C16.3806 10.04 17.4786 14.252 26.1546 14.252H26.9646C35.6226 14.252 36.7206 10.04 36.7206 7.538V6.998C36.7206 4.478 35.6046 0.356 26.9646 0.356H26.1546ZM31.4286 7.376C31.4286 8.816 30.5106 10.634 26.5506 10.634C22.5906 10.634 21.6726 8.744 21.6726 7.34V7.124C21.6726 5.702 22.5186 3.956 26.5506 3.956C30.5106 3.956 31.4286 5.702 31.4286 7.124V7.376ZM43.9067 3.866H49.7747C50.9267 3.866 51.3227 4.37 51.3227 5V5.018C51.3227 5.666 50.9087 6.17 49.7747 6.17H43.9067V3.866ZM43.9067 9.41H48.8027C50.8187 9.41 51.5207 10.202 51.5207 11.732V13.298C51.5207 13.676 51.5567 13.856 51.6827 14H56.9027V13.91C56.7767 13.676 56.6507 13.334 56.6507 12.398V10.418C56.6507 8.69 55.5527 7.61 53.8967 7.232C54.9047 6.998 56.5967 6.188 56.5967 4.244V4.046C56.5967 1.868 54.8687 0.608 50.9627 0.608H38.7947V14H43.9067V9.41ZM58.8603 14H63.8463V5.648L68.5263 14H71.1363L75.8343 5.648V14H80.8923V0.608H74.1603L69.9843 8.132L65.8803 0.608H58.8603V14ZM99.5567 9.806V7.088H96.1007V3.938H92.8067V7.088H89.3687V9.806H92.8067V12.974H96.1007V9.806H99.5567ZM108.027 0.608V14H113.085V8.852H122.355V5.558H113.085V3.884H122.553V0.608H108.027ZM124.697 6.998C124.697 9.59 125.795 14.216 133.589 14.216H134.309C141.887 14.216 143.129 9.59 143.129 6.998V0.608H138.017V6.602C138.017 8.24 137.261 10.202 133.931 10.202C130.547 10.202 129.827 8.24 129.827 6.602V0.608H124.697V6.998ZM145.504 0.608V14H150.58V5.882L158.968 14H164.08V0.608H159.004V8.222L151.228 0.608H145.504ZM176.327 14.252C184.391 14.252 185.651 10.472 185.651 8.726V8.438H180.359C180.287 8.744 179.891 10.634 175.949 10.634C172.349 10.634 171.449 8.744 171.449 7.304V7.088C171.449 5.594 172.241 3.956 175.931 3.956C179.819 3.956 180.233 5.648 180.341 6.008H185.651V5.774C185.651 4.046 184.463 0.356 176.327 0.356H175.625C167.273 0.356 166.157 4.442 166.157 6.998V7.52C166.157 10.058 167.399 14.252 175.625 14.252H176.327ZM192.81 14H197.922V4.262H203.7V0.608H187.032V4.262H192.81V14ZM210.918 0.608H205.824V14H210.918V0.608ZM222.768 0.356C214.092 0.356 212.994 4.478 212.994 6.998V7.538C212.994 10.04 214.092 14.252 222.768 14.252H223.578C232.236 14.252 233.334 10.04 233.334 7.538V6.998C233.334 4.478 232.218 0.356 223.578 0.356H222.768ZM228.042 7.376C228.042 8.816 227.124 10.634 223.164 10.634C219.204 10.634 218.286 8.744 218.286 7.34V7.124C218.286 5.702 219.132 3.956 223.164 3.956C227.124 3.956 228.042 5.702 228.042 7.124V7.376ZM235.408 0.608V14H240.484V5.882L248.872 14H253.984V0.608H248.908V8.222L241.132 0.608H235.408Z" fill="white"/>
</svg>
